HIERARCHY
ROOT root
{
	OFFSET 0.000000 0.000000 0.000000
	CHANNELS 6 Xposition Yposition Zposition Zrotation Yrotation Xrotation
	JOINT lhip
	{
		OFFSET 0.058581 -0.082280 -0.017664
		CHANNELS 3 Zrotation Yrotation Xrotation
		JOINT lknee
		{
			OFFSET 0.043451 -0.386469 0.008037
			CHANNELS 3 Zrotation Yrotation Xrotation
			JOINT lankle
			{
				OFFSET -0.014790 -0.426874 -0.037428
				CHANNELS 3 Zrotation Yrotation Xrotation
				JOINT ltoe
				{
					OFFSET 0.041054 -0.060286 0.122042
					CHANNELS 3 Zrotation Yrotation Xrotation
					End Site
					{
						OFFSET 0.000000 0.000000 0.000000
					}
				}
			}
		}
	}
	JOINT rhip
	{
		OFFSET -0.060310 -0.090513 -0.013543
		CHANNELS 3 Zrotation Yrotation Xrotation
		JOINT rknee
		{
			OFFSET -0.043257 -0.383688 -0.004843
			CHANNELS 3 Zrotation Yrotation Xrotation
			JOINT rankle
			{
				OFFSET 0.019056 -0.420046 -0.034562
				CHANNELS 3 Zrotation Yrotation Xrotation
				JOINT rtoe
				{
					OFFSET -0.034840 -0.062106 0.130323
					CHANNELS 3 Zrotation Yrotation Xrotation
					End Site
					{
						OFFSET 0.000000 0.000000 0.000000
					}
				}
			}
		}
	}
	JOINT lowerback
	{
		OFFSET 0.004439 0.124404 -0.038385
		CHANNELS 3 Zrotation Yrotation Xrotation
		JOINT upperback
		{
			OFFSET 0.004488 0.137956 0.026820
			CHANNELS 3 Zrotation Yrotation Xrotation
			JOINT chest
			{
				OFFSET -0.002265 0.056032 0.002855
				CHANNELS 3 Zrotation Yrotation Xrotation
				JOINT lowerneck
				{
					OFFSET -0.013390 0.211636 -0.033468
					CHANNELS 3 Zrotation Yrotation Xrotation
					JOINT upperneck
					{
						OFFSET 0.010113 0.088937 0.050410
						CHANNELS 3 Zrotation Yrotation Xrotation
						End Site
						{
							OFFSET 0.000000 0.000000 0.000000
						}
					}
				}
				JOINT lclavicle
				{
					OFFSET 0.071702 0.114000 -0.018898
					CHANNELS 3 Zrotation Yrotation Xrotation
					JOINT lshoulder
					{
						OFFSET 0.122921 0.045205 -0.019046
						CHANNELS 3 Zrotation Yrotation Xrotation
						JOINT lelbow
						{
							OFFSET 0.255332 -0.015649 -0.022946
							CHANNELS 3 Zrotation Yrotation Xrotation
							JOINT lwrist
							{
								OFFSET 0.265709 0.012698 -0.007375
								CHANNELS 3 Zrotation Yrotation Xrotation
								End Site
								{
									OFFSET 0.000000 0.000000 0.000000
								}
							}
						}
					}
				}
				JOINT rclavicle
				{
					OFFSET -0.082954 0.112472 -0.023707
					CHANNELS 3 Zrotation Yrotation Xrotation
					JOINT rshoulder
					{
						OFFSET -0.113228 0.046853 -0.008472
						CHANNELS 3 Zrotation Yrotation Xrotation
						JOINT relbow
						{
							OFFSET -0.260127 -0.014369 -0.031269
							CHANNELS 3 Zrotation Yrotation Xrotation
							JOINT rwrist
							{
								OFFSET -0.269108 0.006794 -0.006027
								CHANNELS 3 Zrotation Yrotation Xrotation
								End Site
								{
									OFFSET 0.000000 0.000000 0.000000
								}
							}
						}
					}
				}
			}
		}
	}
}
MOTION
Frames: 7
Frame Time: 0.033333
-0.050470 -0.612307 0.985722 -157.700734 -11.129145 106.264681 -4.551953 -15.606864 -15.937546 -5.849339 -9.187566 6.338783 9.458597 4.214727 -19.737187 0.000000 -0.000000 0.000000 -4.434034 -24.485714 -10.028131 2.872524 -4.056860 -0.800776 4.039034 -6.638718 -14.098746 0.000000 -0.000000 0.000000 -14.762582 -2.740879 -39.543549 -3.928742 -15.356670 10.812119 -6.519714 -8.747080 13.384208 6.318583 -8.765940 3.036490 1.867665 -20.231131 12.579068 -14.390607 5.741699 10.667316 -65.667806 -13.484141 16.606521 3.658801 -26.772447 24.315800 10.476619 -5.504194 -5.840625 15.452538 -6.003864 2.953296 78.199128 6.090905 22.314537 -9.799649 20.497531 20.906777 -0.113191 6.075345 -10.761459 
-0.050960 -0.612729 0.985725 -157.760541 -10.915023 106.028546 -4.369093 -15.739389 -15.616175 -5.925477 -9.352233 6.171396 9.691758 4.745882 -19.661722 0.000000 -0.000000 0.000000 -4.470735 -23.883358 -9.647395 2.906145 -4.105702 -0.990685 4.031751 -7.059002 -14.213338 0.000000 -0.000000 0.000000 -14.928244 -3.272736 -39.934475 -4.008100 -15.662836 11.947283 -5.961057 -8.816150 13.154707 6.278610 -8.845137 3.888387 2.203196 -18.989191 11.748291 -15.726070 5.264229 10.164742 -63.936882 -11.931836 16.997123 3.117144 -28.669147 25.042845 11.564152 -3.823402 -7.776289 15.604922 -4.037476 3.352535 77.560944 6.212308 22.367988 -10.071307 20.848481 20.055151 -0.755277 5.793912 -11.318645 
-0.051085 -0.612603 0.985498 -157.770044 -10.913457 106.018484 -4.381440 -15.710711 -15.569029 -5.924111 -9.360444 6.151122 9.715454 4.696671 -19.695854 0.000000 -0.000000 0.000000 -4.497158 -23.876494 -9.600871 2.921528 -4.154788 -1.009969 4.043360 -7.012255 -14.248415 0.000000 -0.000000 0.000000 -14.980258 -3.295713 -39.926014 -3.990336 -15.679093 12.007008 -5.895180 -8.837367 13.132246 6.340798 -8.661238 3.859054 2.202889 -18.843700 11.777062 -15.825048 5.352233 10.044944 -63.886517 -11.923079 16.994176 3.081384 -28.556574 24.990284 11.582377 -3.872673 -7.642912 15.740869 -4.086046 3.236126 77.455366 6.168611 22.352592 -10.033918 20.935422 20.069722 -0.703752 5.895509 -11.235847 
-0.051069 -0.611984 0.985363 -158.125411 -10.883370 105.934360 -4.449041 -15.509855 -15.235271 -5.920745 -9.316650 5.881888 9.735553 4.800330 -19.731356 0.000000 -0.000000 0.000000 -4.622929 -23.573232 -9.450473 2.893001 -4.135883 -0.991821 4.039242 -6.926037 -14.334372 0.000000 -0.000000 0.000000 -15.041465 -3.221237 -39.817379 -3.872389 -15.522338 12.023034 -5.846112 -8.800742 12.966527 6.544836 -8.169291 3.952625 2.104791 -18.700959 11.976561 -15.904391 5.551461 9.857146 -63.809170 -11.755476 17.098859 3.029058 -28.450634 25.016348 11.601515 -3.797832 -7.589837 16.063730 -4.261509 3.072197 77.289460 6.010422 22.514850 -9.921138 20.995503 20.108279 -0.581332 5.571661 -11.581138 
-0.051065 -0.611821 0.985381 -158.293083 -10.873529 105.920596 -4.466961 -15.462528 -15.134643 -5.914660 -9.286488 5.787859 9.823735 4.886990 -19.772896 0.000000 -0.000000 0.000000 -4.659856 -23.299612 -9.482124 2.843866 -4.088029 -0.869529 3.960716 -7.056528 -14.448722 0.000000 -0.000000 0.000000 -15.117995 -3.207795 -39.874386 -3.790551 -15.455092 12.142495 -5.843457 -8.806358 12.906819 6.685912 -7.756694 4.025145 2.058232 -18.551345 12.150360 -15.957015 5.608080 9.850454 -63.812439 -11.793490 17.176527 3.087025 -28.291039 24.872963 11.963409 -3.735787 -7.590397 16.345276 -4.362790 3.062670 77.146745 6.070554 22.665119 -9.952400 20.963434 19.994029 -1.195651 5.562071 -11.733444 
-0.051135 -0.612087 0.985270 -158.402674 -10.840842 105.848460 -4.484737 -15.414214 -15.062891 -5.924917 -9.232925 5.816294 9.872749 4.919500 -19.789361 0.000000 -0.000000 0.000000 -4.722894 -23.133367 -9.452245 2.860262 -4.101453 -0.768217 3.923074 -7.096469 -14.490016 0.000000 -0.000000 0.000000 -15.113064 -3.162662 -39.753212 -3.736310 -15.422855 12.234476 -5.811029 -8.801455 12.834189 6.749984 -7.571164 4.010140 2.070414 -18.487076 12.121228 -16.050761 5.582522 9.842273 -63.767187 -11.786914 17.181802 3.176595 -28.284163 24.783462 11.983675 -3.727467 -7.520985 16.523985 -4.326838 3.069496 77.097623 6.068916 22.718136 -10.045266 20.944601 19.942336 -1.430177 5.660202 -11.730007 
-0.051193 -0.612007 0.985198 -158.349125 -10.817584 105.757092 -4.483216 -15.436227 -14.979343 -5.894758 -9.265051 5.880269 9.900938 4.900174 -19.799693 0.000000 -0.000000 0.000000 -4.744529 -23.029516 -9.348019 2.850060 -4.149025 -0.739958 3.944635 -7.197360 -14.520145 0.000000 -0.000000 0.000000 -15.238942 -3.121341 -39.705039 -3.671368 -15.457524 12.461625 -5.776088 -8.925105 12.807784 6.853294 -7.215650 3.836891 1.981664 -18.296780 12.151464 -16.209929 5.596850 9.853763 -63.713869 -11.837567 17.182235 3.396395 -28.320930 24.493822 11.921682 -3.832546 -7.476505 16.835350 -4.416052 2.921850 76.999576 6.014376 22.845030 -10.138797 20.872633 19.885935 -1.180215 5.887370 -11.594263 
